<svg width="69" height="68" viewBox="0 0 69 68" fill="none" xmlns="http://www.w3.org/2000/svg">
<rect x="0.580078" y="0.968994" width="68" height="67" rx="33.5" fill="white"/>
<path d="M49.4004 32.469L45.3145 31.3405L45.3451 30.5456L45.3626 30.0908L44.9674 29.8653L34.9528 24.1502L34.5816 23.9384L34.2101 24.1498L27.8275 27.7818L26.3443 28.6258L27.9691 29.1477L49.4004 36.0307V43.11L34.1912 51.6556L19.7617 43.0691V36.4518L23.6721 37.6786L23.6046 38.6921L23.5729 39.1668L23.989 39.3977L34.1904 45.0593L34.5739 45.2721L34.9475 45.0423L41.1965 41.1966L42.589 40.3396L41.0311 39.8432L19.7617 33.0663V25.9793L34.6071 17.2857L49.4004 25.9786V32.469Z" fill="#FF595D" stroke="white" stroke-width="1.5"/>
</svg>
