<svg width="33" height="23" viewBox="0 0 33 23" fill="none" xmlns="http://www.w3.org/2000/svg">
<path d="M16.4336 0.9375C9.10029 0.9375 2.83763 5.49883 0.300293 11.9375C2.83763 18.3762 9.10029 22.9375 16.4336 22.9375C23.7743 22.9375 30.0296 18.3762 32.567 11.9375C30.0296 5.49883 23.7743 0.9375 16.4336 0.9375ZM16.4336 19.2708C12.3856 19.2708 9.10029 15.9855 9.10029 11.9375C9.10029 7.8895 12.3856 4.60417 16.4336 4.60417C20.4816 4.60417 23.767 7.8895 23.767 11.9375C23.767 15.9855 20.4816 19.2708 16.4336 19.2708ZM16.4336 7.5375C14.0063 7.5375 12.0336 9.51017 12.0336 11.9375C12.0336 14.3648 14.0063 16.3375 16.4336 16.3375C18.861 16.3375 20.8336 14.3648 20.8336 11.9375C20.8336 9.51017 18.861 7.5375 16.4336 7.5375Z" fill="#FF595D"/>
</svg>
